<?xml version="1.0" standalone="no"?>
<!DOCTYPE svg PUBLIC "-//W3C//DTD SVG 20010904//EN"
 "http://www.w3.org/TR/2001/REC-SVG-20010904/DTD/svg10.dtd">
<svg version="1.0" xmlns="http://www.w3.org/2000/svg"
 width="800.000000pt" height="800.000000pt" viewBox="0 0 800.000000 800.000000"
 preserveAspectRatio="xMidYMid meet">

<g transform="translate(0.000000,800.000000) scale(0.100000,-0.100000)"
fill="#000000" stroke="none">
<path d="M0 4000 l0 -4000 4000 0 4000 0 0 4000 0 4000 -4000 0 -4000 0 0
-4000z m4390 3503 c0 -5 -63 -125 -139 -268 -76 -143 -136 -261 -132 -262 3
-2 62 8 131 21 69 13 126 23 128 22 1 -2 -66 -144 -148 -316 -83 -172 -149
-314 -148 -315 3 -3 601 773 606 786 2 5 -58 9 -133 9 -81 0 -135 4 -133 9 2
6 50 80 108 165 l105 155 98 1 c177 0 193 -22 184 -255 -21 -507 -169 -951
-419 -1254 -106 -129 -265 -242 -390 -278 l-58 -16 0 -392 0 -392 289 -157
c214 -116 291 -163 300 -182 15 -34 14 -41 -9 -64 -20 -20 -33 -20 -715 -20
-682 0 -695 0 -715 20 -23 23 -24 30 -9 64 9 19 86 66 300 182 l289 157 0 392
0 392 -57 16 c-126 36 -285 149 -391 278 -249 302 -397 745 -419 1251 -7 176
0 208 51 239 30 18 64 19 729 19 383 0 697 -3 697 -7z m-2422 -3410 l3 -103
-66 0 -65 0 0 -525 0 -524 63 -3 62 -3 3 -102 3 -103 -471 0 -470 0 0 99 c0
112 -1 111 81 111 l49 0 0 525 0 524 -62 3 -63 3 -3 89 c-2 49 -1 95 2 103 5
11 89 13 468 11 l463 -3 3 -102z m350 -148 l2 -251 70 4 c97 6 100 2 100 -119
l0 -99 -85 0 -85 0 0 -385 0 -386 -112 3 -113 3 -3 730 c-1 402 0 736 3 743 3
9 32 12 112 10 l108 -3 3 -250z m1275 18 c101 -131 210 -271 242 -311 l57 -73
-163 3 -163 3 -157 205 c-87 112 -161 206 -166 207 -4 1 -79 -92 -166 -206
l-158 -208 -46 -7 c-56 -7 -273 -8 -273 -1 0 3 84 115 187 248 103 133 210
272 237 309 l51 67 166 0 166 1 186 -237z m3345 -505 l2 -738 -680 0 -680 0 0
105 c0 100 1 105 23 110 12 3 264 4 560 3 l537 -3 0 633 0 633 118 -3 117 -3
3 -737z m-1528 639 l0 -93 -214 -95 c-118 -52 -209 -97 -202 -101 6 -3 94 -37
196 -74 102 -37 191 -72 198 -77 16 -12 17 -227 1 -227 -6 0 -160 59 -341 131
-329 130 -330 130 -367 116 -20 -8 -152 -67 -294 -131 -142 -64 -262 -116
-268 -116 -6 0 -9 44 -7 117 l3 116 145 67 c80 37 226 105 324 151 l180 84
-325 5 -324 5 -3 108 -3 107 651 0 650 0 0 -93z m835 58 c72 -35 142 -102 175
-170 23 -46 25 -63 28 -230 4 -226 -7 -266 -102 -361 -89 -90 -141 -107 -316
-107 -116 0 -143 3 -192 22 -76 29 -159 106 -195 179 -27 54 -28 65 -31 224
-3 129 0 179 12 220 33 115 115 199 231 238 51 17 81 20 195 17 125 -3 139 -5
195 -32z m-2895 -625 l0 -90 298 -2 297 -3 3 -97 3 -98 -536 0 -535 0 0 -150
0 -150 479 0 c264 0 486 -3 495 -6 13 -5 16 -25 16 -110 l0 -104 -615 0 -615
0 0 260 0 260 -55 0 -55 0 0 100 0 100 295 0 295 0 0 90 0 90 115 0 115 0 0
-90z m2120 -300 l0 -100 -295 0 -295 0 0 -205 0 -205 -120 0 -120 0 0 205 0
205 -292 2 -293 3 -3 98 -3 97 711 0 710 0 0 -100z m-2442 -942 c3 -16 -5 -18
-67 -18 -38 0 -73 5 -76 10 -14 22 9 31 73 28 54 -2 67 -6 70 -20z m152 -38
l0 -60 30 0 c23 0 30 -4 30 -20 0 -15 -7 -20 -30 -20 l-29 0 -3 -82 c-3 -77
-5 -83 -25 -86 l-23 -3 0 165 0 166 25 0 c24 0 25 -3 25 -60z m550 11 c0 -49
1 -50 33 -53 20 -2 32 -8 32 -18 0 -10 -12 -16 -32 -18 l-33 -3 0 -60 c0 -56
-1 -59 -25 -59 l-25 0 0 130 0 130 25 0 c23 0 25 -3 25 -49z m980 -12 l0 -61
30 7 c26 6 30 4 30 -14 0 -17 -6 -21 -30 -21 l-30 0 0 -91 c0 -88 -1 -90 -22
-87 -23 3 -23 6 -26 166 l-2 162 25 0 c24 0 25 -2 25 -61z m430 -105 l0 -165
-22 3 c-22 3 -23 8 -26 96 l-3 92 -39 0 c-29 0 -40 4 -40 15 0 11 11 15 40 15
l40 0 0 48 c0 53 4 62 32 62 17 0 18 -12 18 -166z m408 74 l3 -88 29 0 c24 0
30 -4 30 -21 0 -18 -4 -21 -30 -16 l-29 6 -3 -112 c-3 -108 -4 -112 -25 -115
l-23 -3 0 221 0 221 23 -3 c21 -3 22 -8 25 -90z m442 -128 l0 -220 -25 0 -25
0 0 220 0 220 25 0 25 0 0 -220z m-90 4 l0 -205 -22 3 c-22 3 -23 8 -26 106
l-3 102 -34 0 c-25 0 -37 -6 -46 -22 -21 -39 -101 -118 -120 -118 -34 0 -31
22 9 56 44 37 86 115 97 177 l6 37 -61 0 c-53 0 -60 2 -60 20 0 18 7 20 85 20
l85 0 0 -33 c0 -17 -4 -47 -9 -65 -9 -31 -9 -32 20 -32 l29 0 0 80 c0 79 0 80
25 80 l25 0 0 -206z m-3696 152 c9 -58 52 -116 109 -146 49 -26 57 -37 33 -46
-21 -8 -84 25 -129 68 l-40 38 -46 -43 c-58 -54 -105 -75 -127 -57 -13 12 -11
15 18 27 39 17 94 67 114 105 8 15 14 43 14 63 0 30 3 35 24 35 20 0 25 -6 30
-44z m556 29 c0 -11 -16 -15 -67 -17 l-68 -3 37 -36 c21 -21 54 -41 74 -46 40
-9 54 -27 30 -36 -19 -8 -102 20 -139 45 -27 19 -27 19 -53 -1 -15 -12 -50
-28 -77 -36 -45 -13 -53 -13 -66 0 -12 12 -13 15 0 19 91 27 139 57 139 88 0
5 -29 8 -65 8 -51 0 -65 3 -65 15 0 13 24 15 160 15 133 0 160 -2 160 -15z
m780 -28 c0 -52 35 -109 79 -127 34 -14 38 -22 18 -39 -11 -8 -25 -3 -61 21
-26 17 -50 37 -53 45 -4 9 -20 0 -54 -32 -44 -42 -76 -55 -92 -38 -4 3 11 22
33 41 50 43 70 79 70 132 0 38 2 40 30 40 29 0 30 -2 30 -43z m620 28 c0 -10
-10 -15 -30 -15 -28 0 -30 -2 -30 -40 0 -38 2 -40 30 -40 23 0 30 -4 30 -20 0
-19 -7 -20 -165 -20 -158 0 -165 1 -165 20 0 16 7 20 30 20 28 0 30 2 30 39 0
36 -3 40 -27 43 -14 2 -28 9 -31 16 -3 9 34 12 162 12 141 0 166 -2 166 -15z
m381 -1 c42 -21 64 -75 49 -120 -17 -49 -53 -74 -110 -74 -57 0 -93 25 -110
74 -13 41 5 94 41 120 30 20 91 21 130 0z m857 -1 c-3 -15 -15 -18 -73 -18
-58 0 -70 3 -73 18 -3 15 6 17 73 17 67 0 76 -2 73 -17z m-370 -10 c-2 -13
-15 -19 -46 -21 -36 -3 -42 -6 -42 -26 0 -31 38 -84 75 -105 17 -9 32 -17 34
-19 3 -1 0 -7 -6 -13 -17 -17 -58 -3 -98 32 l-35 31 -21 -26 c-12 -15 -38 -35
-59 -46 -32 -16 -40 -17 -49 -6 -9 11 -4 18 24 34 41 25 75 76 75 114 0 24 -4
27 -42 30 -31 2 -44 8 -46 21 -3 15 8 17 118 17 110 0 121 -2 118 -17z m-1938
-38 c0 -13 -22 -15 -135 -15 -113 0 -135 2 -135 15 0 13 22 15 135 15 113 0
135 -2 135 -15z m2368 -27 c3 -16 -8 -18 -132 -18 -107 0 -136 3 -136 13 0 25
14 28 139 25 111 -3 126 -5 129 -20z m-2418 -37 c18 -13 25 -27 25 -52 0 -29
-5 -37 -35 -52 -66 -34 -180 -4 -188 50 -10 68 126 105 198 54z m2322 -21 c47
-13 78 -52 78 -97 0 -45 -14 -69 -50 -88 -60 -31 -140 -13 -166 36 -38 74 4
142 96 158 3 1 22 -4 42 -9z m-2552 -50 c0 -19 -7 -20 -90 -20 -81 0 -90 -2
-90 -19 0 -14 10 -20 38 -25 54 -8 92 -40 92 -77 0 -60 -76 -95 -189 -86 -63
5 -102 24 -125 59 -26 41 40 108 106 108 21 0 28 5 28 20 0 19 -7 20 -95 20
-88 0 -95 1 -95 20 0 19 7 20 210 20 203 0 210 -1 210 -20z m1398 -2 c3 -16
-6 -18 -92 -18 -96 0 -96 0 -96 -25 0 -24 2 -25 65 -25 l65 0 0 -75 0 -75
-155 0 -155 0 0 75 0 75 65 0 c63 0 65 1 65 25 0 25 -1 25 -89 25 -50 0 -93 5
-96 10 -16 27 13 30 213 28 188 -3 207 -5 210 -20z m-2008 -68 l0 -60 95 0
c78 0 95 -3 95 -15 0 -13 -30 -15 -210 -15 -180 0 -210 2 -210 15 0 12 17 15
90 15 l90 0 0 60 c0 57 1 60 25 60 24 0 25 -3 25 -60z m1484 9 c61 -32 76 -90
34 -129 -79 -73 -288 -39 -288 47 0 48 29 77 95 94 37 10 130 2 159 -12z m786
-64 l0 -55 125 0 c104 0 125 -2 125 -15 0 -13 -23 -15 -150 -15 l-150 0 0 70
c0 68 1 70 25 70 24 0 25 -3 25 -55z m430 0 l0 -55 125 0 c104 0 125 -2 125
-15 0 -13 -23 -15 -150 -15 l-150 0 0 70 c0 68 1 70 25 70 24 0 25 -3 25 -55z
m-1970 -5 l0 -50 130 0 c109 0 130 -2 130 -15 0 -13 -24 -15 -155 -15 l-155 0
0 65 c0 63 1 65 25 65 23 0 25 -3 25 -50z m-20 -470 l0 -220 -25 0 -25 0 0
120 c0 113 -1 120 -20 120 -19 0 -20 -7 -20 -110 l0 -110 -25 0 -25 0 0 205 0
205 25 0 c25 0 25 -1 25 -80 0 -73 2 -80 20 -80 18 0 20 7 20 85 0 84 0 85 25
85 l25 0 0 -220z m274 185 c8 -40 50 -77 112 -98 44 -16 48 -30 9 -35 -28 -4
-97 28 -131 59 -20 19 -21 19 -40 -2 -38 -43 -143 -75 -159 -49 -3 6 2 13 12
16 88 28 143 74 143 120 0 19 5 24 24 24 19 0 25 -7 30 -35z m974 -22 c3 -52
4 -53 33 -53 24 0 30 -4 27 -17 -2 -11 -14 -19 -30 -21 -25 -3 -27 -7 -30 -60
-3 -50 -6 -57 -25 -60 -23 -3 -23 -3 -23 133 0 136 0 136 23 133 19 -3 22 -10
25 -55z m842 -163 c0 -213 -1 -220 -20 -220 -19 0 -20 7 -20 95 l0 95 -45 0
c-38 0 -45 3 -45 20 0 17 7 20 45 20 45 0 45 0 45 34 0 33 -1 34 -45 38 -44 3
-44 3 -47 -32 l-3 -35 -77 -3 -78 -3 0 -51 0 -50 105 7 c91 6 105 5 105 -8 0
-21 -16 -25 -142 -33 l-108 -6 0 91 0 91 75 0 75 0 0 50 0 50 -75 0 c-60 0
-75 3 -75 15 0 12 18 15 100 15 l100 0 0 -30 c0 -29 2 -30 46 -30 l47 0 -7 41
c-7 47 -2 59 25 59 18 0 19 -9 19 -220z m-1530 180 l0 -30 105 0 105 0 0 30
c0 25 4 30 25 30 l25 0 0 -100 0 -100 -155 0 -155 0 0 100 0 100 25 0 c21 0
25 -5 25 -30z m570 0 c0 -18 -7 -20 -85 -20 -84 0 -85 0 -85 -25 0 -25 1 -25
85 -25 78 0 85 -2 85 -20 0 -18 -7 -20 -85 -20 l-85 0 0 -26 0 -27 110 6 c88
4 110 3 110 -8 0 -20 -26 -26 -152 -32 l-118 -6 0 111 0 112 110 0 c103 0 110
-1 110 -20z m1304 6 c52 -22 76 -54 76 -101 0 -33 -6 -47 -30 -70 -27 -25 -30
-35 -30 -87 l0 -58 55 0 c42 0 55 -3 55 -15 0 -13 -30 -15 -210 -15 -180 0
-210 2 -210 15 0 12 13 15 55 15 l55 0 0 56 c0 48 -4 61 -30 91 -52 58 -32
136 44 169 41 17 128 18 170 0z m-2734 -61 l0 -55 34 0 35 0 3 53 c3 45 6 52
26 55 22 3 22 3 22 -147 l0 -151 -85 0 -85 0 0 150 0 150 25 0 c24 0 25 -3 25
-55z m1960 35 c0 -19 -7 -20 -130 -20 l-130 0 0 -65 0 -65 130 0 c123 0 130
-1 130 -20 0 -19 -7 -20 -155 -20 l-155 0 0 105 0 105 155 0 c148 0 155 -1
155 -20z m-1390 -120 l0 -29 92 -3 c79 -3 93 -6 96 -21 3 -16 -10 -17 -210
-15 -181 3 -213 5 -213 18 0 12 18 16 93 18 l92 3 0 29 c0 25 4 30 25 30 21 0
25 -5 25 -30z m608 -97 c-3 -15 -17 -18 -96 -21 l-92 -3 0 -69 c0 -68 -1 -70
-25 -70 -24 0 -25 2 -25 70 l0 70 -89 0 c-85 0 -110 8 -96 30 4 6 87 10 216
10 195 0 210 -1 207 -17z m-557 -8 c20 -3 48 -16 63 -30 72 -67 -19 -144 -158
-133 -108 9 -167 60 -131 114 20 31 51 47 105 54 45 7 52 6 121 -5z m927 -77
c3 -78 3 -78 -23 -78 -24 0 -25 2 -25 60 l0 60 -130 0 c-102 0 -130 3 -130 13
0 8 3 17 7 21 4 3 72 5 152 4 l146 -3 3 -77z m472 2 c0 -19 -7 -20 -210 -20
-203 0 -210 1 -210 20 0 19 7 20 210 20 203 0 210 -1 210 -20z"/>
<path d="M1410 3465 l0 -525 90 0 90 0 0 525 0 525 -90 0 -90 0 0 -525z"/>
<path d="M5930 3962 c-72 -32 -80 -56 -80 -230 0 -145 1 -150 25 -176 13 -14
36 -31 50 -36 41 -16 191 -12 225 5 56 29 60 45 60 216 0 152 -1 157 -25 183
-13 14 -36 31 -50 36 -29 11 -181 12 -205 2z"/>
<path d="M3940 2220 l0 -40 55 0 55 0 0 40 0 40 -55 0 -55 0 0 -40z"/>
<path d="M4451 2247 c-50 -25 -48 -105 4 -129 50 -23 104 29 89 87 -11 43 -54
62 -93 42z"/>
<path d="M2904 2136 c-41 -31 20 -71 84 -54 34 9 43 33 20 56 -17 17 -80 15
-104 -2z"/>
<path d="M5280 2090 c-53 -53 7 -143 72 -109 30 16 38 28 38 62 0 34 -32 67
-65 67 -14 0 -34 -9 -45 -20z"/>
<path d="M2528 1989 c-34 -13 -46 -46 -24 -67 24 -24 148 -29 181 -8 14 9 25
26 25 37 0 40 -113 63 -182 38z"/>
<path d="M3890 1950 l0 -40 105 0 105 0 0 40 0 40 -105 0 -105 0 0 -40z"/>
<path d="M3517 1998 c-34 -12 -47 -53 -23 -76 21 -21 132 -28 166 -10 16 9 26
24 28 41 3 23 -2 30 -32 42 -40 17 -98 18 -139 3z"/>
<path d="M3470 1570 l0 -30 105 0 105 0 0 30 0 30 -105 0 -105 0 0 -30z"/>
<path d="M5220 1650 c-54 -13 -82 -58 -64 -105 18 -46 140 -62 188 -24 22 17
26 28 24 57 -5 58 -71 90 -148 72z"/>
<path d="M5210 1410 l0 -50 50 0 50 0 0 50 0 50 -50 0 -50 0 0 -50z"/>
<path d="M2610 1470 l0 -60 35 0 35 0 0 60 0 60 -35 0 -35 0 0 -60z"/>
<path d="M3093 1394 c-26 -6 -54 -41 -47 -59 8 -21 52 -35 109 -35 95 0 138
31 98 72 -21 20 -111 32 -160 22z"/>
</g>
</svg>
