<?xml version="1.0" standalone="no"?>
<!DOCTYPE svg PUBLIC "-//W3C//DTD SVG 20010904//EN"
 "http://www.w3.org/TR/2001/REC-SVG-20010904/DTD/svg10.dtd">
<svg version="1.0" xmlns="http://www.w3.org/2000/svg"
 width="800.000000pt" height="800.000000pt" viewBox="0 0 800.000000 800.000000"
 preserveAspectRatio="xMidYMid meet">

<g transform="translate(0.000000,800.000000) scale(0.100000,-0.100000)"
fill="#000000" stroke="none">
<path d="M0 4000 l0 -4000 4000 0 4000 0 0 4000 0 4000 -4000 0 -4000 0 0
-4000z m4166 3046 c118 -38 245 -105 266 -141 26 -45 47 -136 59 -256 9 -94 8
-112 -5 -131 -12 -16 -16 -47 -16 -113 0 -191 -38 -295 -144 -400 -113 -111
-258 -155 -407 -121 -113 25 -191 76 -256 165 -79 109 -95 161 -102 321 -4 92
-11 142 -20 156 -29 44 21 347 65 395 28 31 209 117 294 139 91 24 155 21 266
-14z m-434 -1183 c19 -21 76 -92 126 -158 50 -66 106 -138 125 -160 l34 -39
34 48 c192 273 245 341 271 344 38 5 183 -48 268 -98 194 -113 332 -287 392
-497 22 -74 23 -95 23 -413 l0 -335 -30 -54 c-16 -30 -51 -72 -77 -94 -33 -28
-51 -52 -58 -79 -15 -52 -62 -103 -115 -124 -36 -13 -45 -22 -45 -40 0 -13 -9
-33 -20 -44 -20 -20 -33 -20 -654 -20 -626 0 -634 0 -660 21 -14 11 -26 30
-26 43 0 16 -9 25 -35 35 -65 23 -125 90 -125 140 0 11 -21 36 -48 59 -26 22
-61 64 -78 94 l-29 53 0 350 0 350 32 81 c52 133 93 210 149 278 59 71 173
165 249 204 68 35 215 91 240 92 12 0 37 -17 57 -37z m-1272 -2663 l0 -610
-485 0 -485 0 0 -40 0 -40 485 0 485 0 0 -90 0 -90 -605 0 -605 0 0 210 0 210
490 0 490 0 0 35 0 35 -490 0 -490 0 0 90 0 90 490 0 490 0 0 405 0 405 115 0
115 0 0 -610z m1400 435 l0 -175 80 0 81 0 -3 -107 -3 -108 -77 -3 -78 -3 -2
-457 -3 -457 -577 -3 -578 -2 0 265 0 266 118 -3 117 -3 3 -157 3 -158 339 0
340 0 0 640 0 640 120 0 120 0 0 -175z m1180 -90 l0 -265 50 0 50 0 0 265 0
265 115 0 115 0 0 -740 0 -740 -115 0 -115 0 0 370 0 370 -50 0 -50 0 0 -370
0 -370 -120 0 -120 0 2 473 c2 259 4 592 6 740 l3 267 114 0 115 0 0 -265z
m-3329 235 c74 -25 101 -41 157 -94 67 -63 84 -105 90 -217 6 -121 -12 -188
-67 -250 -149 -168 -443 -186 -606 -37 -83 76 -100 119 -100 258 0 106 2 120
28 172 39 80 117 141 222 174 65 21 206 17 276 -6z m1159 -95 l0 -115 145 0
145 0 0 115 0 115 115 0 115 0 0 -410 0 -410 -380 0 -380 0 0 410 0 410 120 0
120 0 0 -115z m1420 -145 l0 -260 85 0 85 0 0 260 0 260 120 0 120 0 0 -730 0
-730 -320 0 -320 0 0 730 0 730 115 0 115 0 0 -260z m2260 -2 c124 -143 227
-265 228 -269 2 -5 -68 -9 -155 -9 l-158 0 -134 154 c-73 85 -141 162 -151
171 -16 15 -27 5 -165 -153 l-147 -169 -111 -6 c-163 -10 -209 -9 -205 4 2 6
105 130 228 274 l225 264 160 0 160 0 225 -261z m-270 -303 l0 -85 280 0 280
0 0 -100 0 -100 -680 0 -680 0 0 100 0 100 280 0 280 0 0 85 0 85 120 0 120 0
0 -85z m307 -390 c63 -19 134 -80 162 -140 15 -31 21 -64 21 -110 0 -111 -46
-186 -143 -235 l-60 -30 -407 0 -407 0 -62 31 c-95 48 -143 126 -143 234 0
111 73 213 179 248 69 23 783 25 860 2z m-3497 -865 c0 -18 -7 -20 -70 -20
-63 0 -70 2 -70 20 0 18 7 20 70 20 63 0 70 -2 70 -20z m150 -35 c0 -54 0 -55
30 -55 25 0 30 -4 30 -25 0 -21 -5 -25 -30 -25 l-30 0 0 -81 0 -80 -27 3 -28
3 -3 158 -3 157 31 0 c30 0 30 0 30 -55z m520 10 c0 -41 2 -45 25 -45 20 0 25
-5 25 -25 0 -20 -5 -25 -25 -25 -22 0 -24 -4 -27 -57 -3 -55 -4 -58 -30 -61
l-28 -3 0 130 0 131 30 0 c29 0 30 -2 30 -45z m910 -10 c0 -54 0 -55 30 -55
23 0 30 -4 30 -20 0 -16 -7 -20 -30 -20 l-30 0 0 -85 0 -85 -30 0 -30 0 0 160
0 160 30 0 c30 0 30 -1 30 -55z m410 -105 l0 -160 -30 0 -30 0 0 90 0 90 -35
0 c-28 0 -35 4 -35 20 0 16 7 20 35 20 l35 0 0 50 c0 49 1 50 30 50 l30 0 0
-160z m380 75 l0 -85 30 0 c23 0 30 -4 30 -20 0 -16 -7 -20 -30 -20 l-30 0 0
-110 0 -110 -30 0 -30 0 0 215 0 215 30 0 30 0 0 -85z m418 -127 l-3 -213 -27
-3 -28 -3 0 215 0 216 30 0 30 0 -2 -212z m-3555 156 c6 -56 46 -109 108 -142
37 -20 44 -21 47 -8 3 14 31 16 213 16 202 0 209 -1 209 -20 0 -19 -7 -20 -90
-20 -81 0 -90 -2 -90 -19 0 -14 10 -20 41 -25 47 -8 89 -45 89 -79 0 -89 -213
-120 -297 -44 -48 43 -11 111 66 123 31 5 41 11 41 25 0 17 -9 19 -90 19 -51
0 -98 -5 -109 -11 -28 -18 -64 -4 -119 48 l-51 48 -31 -33 c-60 -63 -116 -86
-139 -58 -10 12 -3 19 39 42 60 33 100 91 100 147 0 34 2 37 29 37 26 0 29 -3
34 -46z m527 21 c0 -23 -4 -24 -62 -27 l-63 -3 23 -21 c13 -12 44 -28 70 -34
58 -16 58 -16 42 -35 -18 -22 -50 -18 -114 13 l-56 29 -56 -29 c-61 -30 -93
-35 -112 -16 -19 19 -14 25 26 33 43 8 89 33 96 52 4 10 -9 13 -54 13 -57 0
-60 1 -60 25 l0 25 160 0 160 0 0 -25z m718 -24 c4 -53 31 -95 77 -119 31 -16
32 -19 19 -37 -14 -19 -15 -19 -49 -1 -19 10 -44 29 -56 42 l-22 23 -19 -24
c-10 -13 -34 -33 -54 -46 -33 -20 -37 -21 -52 -5 -16 16 -16 18 3 28 56 32 95
99 95 166 0 20 5 23 28 20 24 -3 27 -7 30 -47z m592 24 c0 -20 -5 -25 -25 -25
-21 0 -25 -5 -25 -30 0 -25 4 -30 25 -30 19 0 25 -5 25 -22 0 -23 -1 -23 -160
-23 -159 0 -160 0 -160 23 0 17 6 22 25 22 21 0 25 5 25 30 0 25 -4 30 -25 30
-20 0 -25 5 -25 25 l0 25 160 0 160 0 0 -25z m361 -11 c36 -34 44 -72 25 -117
-44 -108 -215 -79 -216 36 0 49 13 73 53 98 43 27 99 20 138 -17z m789 11 c0
-24 -2 -25 -70 -25 -68 0 -70 1 -70 25 0 24 2 25 70 25 68 0 70 -1 70 -25z
m480 -175 l0 -200 -25 0 c-25 0 -25 0 -25 99 l0 99 -35 4 c-33 4 -37 1 -60
-38 -13 -23 -40 -55 -60 -73 -29 -25 -39 -29 -55 -21 -28 15 -25 24 14 54 37
28 81 109 92 169 l6 37 -56 0 c-49 0 -56 2 -56 20 0 18 7 20 86 20 l87 0 -7
-60 c-7 -60 -7 -60 19 -60 l27 0 -4 75 -3 75 28 0 27 0 0 -200z m-822 163 c3
-21 -1 -23 -42 -23 -35 0 -46 -4 -46 -15 0 -31 30 -73 67 -96 21 -12 40 -24
42 -25 7 -6 -21 -34 -34 -34 -8 0 -34 15 -59 34 l-45 35 -37 -34 c-45 -41 -70
-51 -89 -35 -22 18 -19 23 22 45 40 22 73 68 73 103 0 19 -5 22 -40 22 -36 0
-40 2 -40 25 l0 26 113 -3 c108 -3 112 -4 115 -25z m-1818 -38 l0 -25 -130 0
-130 0 0 25 0 25 130 0 130 0 0 -25z m2220 -25 c0 -19 -7 -20 -130 -20 -123 0
-130 1 -130 20 0 19 7 20 130 20 123 0 130 -1 130 -20z m-2270 -25 c32 -16 45
-44 35 -75 -16 -49 -132 -67 -192 -30 -48 29 -43 79 12 108 29 16 111 14 145
-3z m2209 -41 c29 -21 52 -74 44 -105 -14 -60 -87 -99 -147 -79 -65 21 -95 79
-72 135 19 45 52 65 106 65 26 0 56 -7 69 -16z m-1101 -41 c3 -22 1 -23 -87
-23 -84 0 -91 -1 -91 -20 0 -18 7 -20 60 -20 l60 0 0 -75 0 -75 -150 0 -150 0
0 75 0 75 60 0 c53 0 60 2 60 20 0 19 -7 20 -90 20 -81 0 -90 2 -90 18 0 10 3
22 7 26 4 3 97 5 207 4 200 -3 201 -3 204 -25z m-1888 -58 l0 -55 90 0 c89 0
90 0 90 -25 l0 -25 -205 0 -205 0 0 25 c0 25 1 25 85 25 l85 0 0 55 c0 54 0
55 30 55 30 0 30 -1 30 -55z m1400 -3 c41 -31 54 -66 36 -100 -20 -39 -67 -57
-146 -57 -78 0 -126 18 -145 56 -25 48 7 97 75 118 49 15 149 5 180 -17z m720
-52 l0 -50 120 0 c113 0 120 -1 120 -20 0 -19 -7 -20 -150 -20 l-150 0 0 70 0
70 30 0 c29 0 30 -1 30 -50z m410 0 l0 -50 120 0 c113 0 120 -1 120 -20 0 -19
-7 -20 -150 -20 l-150 0 0 70 0 70 30 0 c29 0 30 -1 30 -50z m-1840 -5 l0 -45
120 0 c113 0 120 -1 120 -20 0 -19 -7 -20 -150 -20 l-150 0 0 65 0 65 30 0
c29 0 30 -2 30 -45z m-30 -451 l0 -215 -26 3 -27 3 2 113 c2 107 1 112 -18
112 -20 0 -21 -6 -21 -105 l0 -105 -30 0 -30 0 0 200 0 200 30 0 30 0 0 -75
c0 -70 1 -75 21 -75 21 0 22 3 16 80 l-5 80 29 0 29 0 0 -216z m260 190 c0
-33 49 -80 101 -95 40 -12 51 -35 24 -46 -20 -7 -92 21 -129 50 l-29 24 -48
-33 c-58 -39 -108 -52 -120 -33 -14 22 -11 25 30 38 52 15 101 62 101 95 0 23
4 26 35 26 31 0 35 -3 35 -26z m912 -24 c-4 -50 -4 -50 27 -50 26 0 31 -4 31
-25 0 -21 -5 -25 -31 -25 l-30 0 2 -52 c3 -51 2 -53 -24 -56 l-27 -3 0 130 0
131 28 0 c26 0 27 -1 24 -50z m806 -162 l-3 -213 -27 -3 -28 -3 0 90 0 91 -40
0 c-36 0 -40 3 -40 25 0 23 4 25 40 25 38 0 40 2 40 30 0 28 -3 30 -35 30 -31
0 -35 3 -35 25 0 22 4 25 35 25 35 0 35 0 35 45 0 43 1 45 30 45 l30 0 -2
-212z m-1448 177 c0 -25 0 -25 95 -25 95 0 95 0 95 25 0 20 5 25 25 25 l25 0
0 -100 0 -100 -150 0 -150 0 0 100 0 100 30 0 c25 0 30 -4 30 -25z m1783 -4
c35 -21 57 -57 57 -92 0 -27 -26 -75 -45 -82 -11 -5 -15 -21 -15 -62 l0 -55
56 0 c52 0 55 -1 52 -22 -3 -23 -3 -23 -208 -23 -205 0 -205 0 -208 23 -3 21
0 22 52 22 l56 0 0 55 c0 34 -5 57 -13 62 -24 14 -47 57 -47 85 0 35 49 91 92
106 47 16 132 7 171 -17z m-1253 -1 c0 -18 -7 -20 -80 -20 -73 0 -80 -2 -80
-20 0 -18 7 -20 80 -20 79 0 80 0 80 -25 0 -25 -1 -25 -80 -25 -75 0 -80 -1
-80 -21 0 -21 2 -22 105 -15 100 7 105 6 105 -12 0 -26 -34 -32 -166 -32
l-104 0 0 105 0 105 110 0 c103 0 110 -1 110 -20z m-1350 -45 c0 -54 0 -55 30
-55 30 0 30 0 30 56 0 54 0 55 28 52 l27 -3 3 -147 3 -148 -91 0 -90 0 0 143
c0 79 3 147 7 150 3 4 17 7 30 7 21 0 23 -4 23 -55z m1858 28 c3 -23 2 -23
-122 -23 l-126 0 0 -60 0 -60 126 0 c124 0 125 0 122 -22 -3 -23 -5 -23 -153
-23 l-150 0 -3 94 c-1 52 0 101 2 108 4 11 36 13 153 11 145 -3 148 -3 151
-25z m270 -60 l-3 -88 -67 -3 -68 -3 0 -41 0 -41 95 6 c94 5 95 5 95 -17 0
-21 -6 -24 -67 -29 -38 -4 -94 -7 -125 -7 l-58 0 0 90 0 90 70 0 70 0 0 40 0
40 -70 0 c-68 0 -70 1 -70 25 l0 25 100 0 101 0 -3 -87z m-1588 -53 l0 -30 90
0 c82 0 90 -2 90 -19 0 -27 48 -33 235 -29 160 3 160 3 163 -19 3 -22 1 -23
-87 -23 l-91 0 0 -70 0 -70 -30 0 -30 0 0 70 0 70 -85 0 c-78 0 -85 2 -85 20
0 19 -7 20 -200 20 l-200 0 0 25 c0 25 1 25 90 25 l90 0 0 30 c0 25 4 30 25
30 21 0 25 -5 25 -30z m90 -122 c59 -41 58 -92 -2 -125 -24 -13 -55 -18 -113
-18 -58 0 -89 5 -113 18 -60 33 -61 84 -2 125 28 18 46 22 115 22 69 0 87 -4
115 -22z m833 -61 l2 -77 -27 0 c-27 0 -28 2 -28 55 l0 55 -125 0 c-115 0
-125 2 -125 18 0 10 3 22 7 26 4 3 72 5 151 4 l144 -3 1 -78z m447 3 c0 -19
-7 -20 -205 -20 -198 0 -205 1 -205 20 0 19 7 20 205 20 198 0 205 -1 205 -20z"/>
<path d="M3915 6949 c-39 -11 -104 -37 -145 -57 -71 -35 -75 -39 -91 -87 -10
-27 -19 -68 -21 -90 -4 -47 -10 -47 127 -9 88 24 117 28 245 27 142 0 214 -13
333 -58 22 -9 23 16 1 99 -23 90 -28 94 -199 157 -107 39 -163 43 -250 18z"/>
<path d="M3870 6620 c-100 -21 -205 -59 -193 -69 54 -47 64 -51 98 -37 127 54
283 57 438 10 l87 -27 25 23 c14 13 25 29 25 36 0 18 -110 53 -220 69 -120 19
-155 18 -260 -5z"/>
<path d="M3870 6423 c-88 -28 -139 -34 -177 -20 -22 8 -23 7 -23 -61 0 -201
138 -350 335 -360 102 -5 178 21 247 86 73 68 101 135 106 250 4 90 4 95 -14
87 -43 -18 -76 -16 -150 10 -117 40 -215 43 -324 8z"/>
<path d="M3560 5747 c-265 -116 -415 -316 -450 -597 -15 -128 -4 -563 17 -602
19 -40 33 -34 33 12 0 23 7 54 14 69 21 39 77 87 120 101 l36 12 0 214 c0 215
0 215 25 239 l24 25 624 0 c615 0 625 0 650 -21 l27 -20 2 -221 3 -221 40 -14
c72 -25 121 -88 127 -165 3 -37 14 -35 35 5 16 29 18 62 17 317 -1 257 -3 293
-22 365 -60 222 -201 390 -413 489 -119 56 -117 56 -171 -22 -132 -190 -251
-348 -268 -354 -30 -11 -61 21 -222 228 -82 107 -155 194 -161 194 -7 0 -46
-15 -87 -33z"/>
<path d="M3436 5084 c-3 -8 -6 -87 -6 -174 0 -168 6 -190 50 -190 27 0 90 -58
108 -100 20 -48 28 -245 12 -296 -7 -21 -26 -54 -43 -71 -17 -18 -28 -35 -26
-38 7 -7 949 -11 949 -4 0 3 -9 14 -21 25 -41 37 -52 75 -57 189 -2 66 0 127
7 153 15 54 64 110 119 134 l42 19 0 180 0 179 -237 -2 -238 -3 -3 -142 c-1
-79 -5 -143 -7 -143 -2 0 -22 19 -44 43 l-40 42 -45 -44 -45 -45 -3 150 -3
149 -231 3 c-205 2 -232 1 -238 -14z"/>
<path d="M3310 4618 c-13 -7 -30 -25 -37 -38 -17 -34 -17 -182 1 -225 19 -46
47 -58 119 -53 88 7 97 21 97 159 0 99 -2 110 -23 135 -19 22 -34 28 -78 31
-33 2 -64 -1 -79 -9z"/>
<path d="M4564 4616 c-17 -8 -34 -21 -38 -31 -3 -9 -6 -67 -6 -129 0 -145 8
-156 110 -156 102 0 110 11 110 158 0 62 -4 122 -10 132 -20 37 -108 51 -166
26z"/>
<path d="M1505 3571 c-49 -22 -73 -56 -81 -115 -8 -55 8 -105 46 -141 26 -24
40 -30 93 -33 110 -6 162 49 155 164 -3 50 -9 69 -28 90 -50 54 -116 67 -185
35z"/>
<path d="M2870 3270 l0 -80 145 0 145 0 0 80 0 80 -145 0 -145 0 0 -80z"/>
<path d="M4290 2810 l0 -260 85 0 85 0 0 260 0 260 -85 0 -85 0 0 -260z"/>
<path d="M5797 2642 c-19 -21 -22 -64 -7 -93 10 -18 25 -19 370 -19 345 0 360
1 370 19 16 30 12 76 -8 94 -17 15 -57 17 -364 17 -321 0 -346 -1 -361 -18z"/>
<path d="M2609 1672 c-31 -26 -19 -48 31 -62 65 -18 150 4 150 39 0 41 -136
58 -181 23z"/>
<path d="M3950 1910 c0 -29 1 -30 50 -30 49 0 50 1 50 30 0 29 -1 30 -50 30
-49 0 -50 -1 -50 -30z"/>
<path d="M4409 1930 c-38 -22 -31 -88 11 -110 27 -14 69 7 77 39 13 53 -43 98
-88 71z"/>
<path d="M2983 1834 c-18 -8 -16 -41 3 -48 23 -9 67 -7 84 4 38 24 -41 63 -87
44z"/>
<path d="M5200 1780 c-24 -24 -25 -48 -4 -78 31 -44 104 -16 104 40 0 24 -35
58 -60 58 -11 0 -29 -9 -40 -20z"/>
<path d="M3900 1650 l0 -30 95 0 95 0 0 30 0 30 -95 0 -95 0 0 -30z"/>
<path d="M3542 1689 c-18 -7 -23 -15 -20 -36 4 -38 67 -59 127 -43 89 24 66
91 -31 89 -29 0 -63 -4 -76 -10z"/>
<path d="M3510 1295 c0 -25 0 -25 95 -25 95 0 95 0 95 25 0 25 0 25 -95 25
-95 0 -95 0 -95 -25z"/>
<path d="M5140 1363 c-51 -20 -64 -64 -31 -104 16 -21 28 -24 81 -24 53 0 65
3 81 24 42 52 11 102 -68 107 -27 2 -55 1 -63 -3z"/>
<path d="M5140 1143 l0 -43 50 0 50 0 0 43 0 42 -50 0 -50 0 0 -42z"/>
<path d="M2690 1195 c0 -54 0 -55 30 -55 30 0 30 1 30 55 0 54 0 55 -30 55
-30 0 -30 -1 -30 -55z"/>
<path d="M3134 1111 c-30 -13 -36 -36 -13 -57 29 -26 142 -25 169 2 18 17 19
22 6 39 -10 14 -28 20 -77 22 -35 1 -73 -1 -85 -6z"/>
</g>
</svg>
